HIERARCHY
ROOT hip
{
  OFFSET 39.2557 83.0714 -63.7585
  CHANNELS 6 Xposition Yposition Zposition Zrotation Xrotation Yrotation
  JOINT abdomen
  {
    OFFSET 0 20.6881 -0.73152
    CHANNELS 3 Zrotation Xrotation Yrotation
    JOINT chest
    {
      OFFSET 0 11.7043 -0.48768
      CHANNELS 3 Zrotation Xrotation Yrotation
      JOINT neck
      {
        OFFSET 0 22.1894 -2.19456
        CHANNELS 3 Zrotation Xrotation Yrotation
        JOINT head
        {
          OFFSET -0.24384 7.07133 1.2192
          CHANNELS 3 Zrotation Xrotation Yrotation
          JOINT leftEye
          {
            OFFSET 4.14528 8.04674 8.04672
            CHANNELS 3 Zrotation Xrotation Yrotation
            End Site
            {
              OFFSET 1 0 0
            }
          }
          JOINT rightEye
          {
            OFFSET -3.6576 8.04674 8.04672
            CHANNELS 3 Zrotation Xrotation Yrotation
            End Site
            {
              OFFSET 1 0 0
            }
          }
        }
      }
      JOINT rCollar
      {
        OFFSET -2.68224 19.2634 -4.8768
        CHANNELS 3 Zrotation Xrotation Yrotation
        JOINT rShldr
        {
          OFFSET -8.77824 -1.95073 1.46304
          CHANNELS 3 Zrotation Xrotation Yrotation
          JOINT rForeArm
          {
            OFFSET -28.1742 -1.7115 0.48768
            CHANNELS 3 Zrotation Xrotation Yrotation
            JOINT rHand
            {
              OFFSET -22.5879 0.773209 7.07136
              CHANNELS 3 Zrotation Xrotation Yrotation
              JOINT rThumb1
              {
                OFFSET -1.2192 -0.487915 3.41376
                CHANNELS 3 Zrotation Xrotation Yrotation
                JOINT rThumb2
                {
                  OFFSET -3.37035 -0.52449 3.41376
                  CHANNELS 3 Zrotation Xrotation Yrotation
                  End Site
                  {
                    OFFSET -1.78271 -1.18214 1.43049
                  }
                }
              }
              JOINT rIndex1
              {
                OFFSET -7.75947 0.938293 5.60832
                CHANNELS 3 Zrotation Xrotation Yrotation
                JOINT rIndex2
                {
                  OFFSET -2.54057 -0.884171 1.56538
                  CHANNELS 3 Zrotation Xrotation Yrotation
                  End Site
                  {
                    OFFSET -1.62519 -0.234802 1.16502
                  }
                }
              }
              JOINT rMid1
              {
                OFFSET -8.24714 1.18213 3.41376
                CHANNELS 3 Zrotation Xrotation Yrotation
                JOINT rMid2
                {
                  OFFSET -3.10165 -0.590103 1.0647
                  CHANNELS 3 Zrotation Xrotation Yrotation
                  End Site
                  {
                    OFFSET -2.48547 -0.328903 0.83742
                  }
                }
              }
              JOINT rRing1
              {
                OFFSET -8.82822 0.546677 1.51678
                CHANNELS 3 Zrotation Xrotation Yrotation
                JOINT rRing2
                {
                  OFFSET -2.60934 -0.819778 -0.0198488
                  CHANNELS 3 Zrotation Xrotation Yrotation
                  End Site
                  {
                    OFFSET -2.33842 -0.294052 0.168128
                  }
                }
              }
              JOINT rPinky1
              {
                OFFSET -8.27202 -0.0477905 -0.4584
                CHANNELS 3 Zrotation Xrotation Yrotation
                JOINT rPinky2
                {
                  OFFSET -1.82734 -0.647385 -0.700984
                  CHANNELS 3 Zrotation Xrotation Yrotation
                  End Site
                  {
                    OFFSET -1.69225 -0.51767 -0.607171
                  }
                }
              }
            }
          }
        }
      }
      JOINT lCollar
      {
        OFFSET 2.68224 19.2634 -4.8768
        CHANNELS 3 Zrotation Xrotation Yrotation
        JOINT lShldr
        {
          OFFSET 8.77824 -1.95073 1.46304
          CHANNELS 3 Zrotation Xrotation Yrotation
          JOINT lForeArm
          {
            OFFSET 28.1742 -1.7115 0.48768
            CHANNELS 3 Zrotation Xrotation Yrotation
            JOINT lHand
            {
              OFFSET 22.5879 0.773209 7.07136
              CHANNELS 3 Zrotation Xrotation Yrotation
              JOINT lThumb1
              {
                OFFSET 1.2192 -0.487915 3.41376
                CHANNELS 3 Zrotation Xrotation Yrotation
                JOINT lThumb2
                {
                  OFFSET 3.37035 -0.52449 3.41376
                  CHANNELS 3 Zrotation Xrotation Yrotation
                  End Site
                  {
                    OFFSET 1.78271 -1.18214 1.43049
                  }
                }
              }
              JOINT lIndex1
              {
                OFFSET 7.75947 0.938293 5.60832
                CHANNELS 3 Zrotation Xrotation Yrotation
                JOINT lIndex2
                {
                  OFFSET 2.54057 -0.884171 1.56538
                  CHANNELS 3 Zrotation Xrotation Yrotation
                  End Site
                  {
                    OFFSET 1.62519 -0.234802 1.16502
                  }
                }
              }
              JOINT lMid1
              {
                OFFSET 8.24714 1.18213 3.41376
                CHANNELS 3 Zrotation Xrotation Yrotation
                JOINT lMid2
                {
                  OFFSET 3.10165 -0.590103 1.0647
                  CHANNELS 3 Zrotation Xrotation Yrotation
                  End Site
                  {
                    OFFSET 2.48547 -0.328903 0.83742
                  }
                }
              }
              JOINT lRing1
              {
                OFFSET 8.82822 0.546677 1.51678
                CHANNELS 3 Zrotation Xrotation Yrotation
                JOINT lRing2
                {
                  OFFSET 2.60934 -0.819778 -0.0198488
                  CHANNELS 3 Zrotation Xrotation Yrotation
                  End Site
                  {
                    OFFSET 2.33842 -0.294052 0.168128
                  }
                }
              }
              JOINT lPinky1
              {
                OFFSET 8.27202 -0.0477905 -0.4584
                CHANNELS 3 Zrotation Xrotation Yrotation
                JOINT lPinky2
                {
                  OFFSET 1.82734 -0.647385 -0.700984
                  CHANNELS 3 Zrotation Xrotation Yrotation
                  End Site
                  {
                    OFFSET 1.69225 -0.51767 -0.607171
                  }
                }
              }
            }
          }
        }
      }
    }
  }
  JOINT rButtock
  {
    OFFSET -8.77824 4.35084 1.2192
    CHANNELS 3 Zrotation Xrotation Yrotation
    JOINT rThigh
    {
      OFFSET 0 -1.70687 -2.19456
      CHANNELS 3 Zrotation Xrotation Yrotation
      JOINT rShin
      {
        OFFSET 0 -36.8199 0.73152
        CHANNELS 3 Zrotation Xrotation Yrotation
        JOINT rFoot
        {
          OFFSET 0.73152 -45.1104 -5.12064
          CHANNELS 3 Zrotation Xrotation Yrotation
          End Site
          {
            OFFSET -1.1221 -3.69964 12.103
          }
        }
      }
    }
  }
  JOINT lButtock
  {
    OFFSET 8.77824 4.35084 1.2192
    CHANNELS 3 Zrotation Xrotation Yrotation
    JOINT lThigh
    {
      OFFSET 0 -1.70687 -2.19456
      CHANNELS 3 Zrotation Xrotation Yrotation
      JOINT lShin
      {
        OFFSET 0 -36.8199 0.73152
        CHANNELS 3 Zrotation Xrotation Yrotation
        JOINT lFoot
        {
          OFFSET -0.73152 -45.1104 -5.12064
          CHANNELS 3 Zrotation Xrotation Yrotation
          End Site
          {
            OFFSET 1.1221 -3.69964 12.103
          }
        }
      }
    }
  }
}
MOTION
Frames:	5
Frame Time:	0.00833333
49.9606 79.8091 -8.98053 -1.10339 -4.05833 -172.933 -7.5182 14.624 -0.534376 6.52489 3.72282 -0.14608 -5.91796 11.9026 -3.96972 17.6904 0.520617 -3.4523 -0 0 0 -0 0 0 9.5196e-014 9.28251e-014 -3.14598e-013 64.3222 -2.31871 -12.4902 -12.1685 -5.54447 21.9821 -0.383703 17.2617 2.50391 6.85876e-010 -5.27855e-010 -3.77873e-009 1.13449e-009 -9.3794e-010 -6.54264e-009 6.85875e-010 -5.27857e-010 -3.77873e-009 7.73091 5.47488 0.417314 6.85871e-010 -5.27858e-010 -3.77872e-009 2.90554 0.965183 0.102902 6.85876e-010 -5.27859e-010 -3.77872e-009 10.2786 0.731801 0.0259123 6.85864e-010 -5.27857e-010 -3.77871e-009 2.22167 -0.733487 -0.20892 9.50315e-014 9.28386e-014 -3.14707e-013 -54.9173 27.0606 -3.0685 16.9577 -9.57508 -31.7582 0.0431856 4.49564 -0.636611 1.35454e-009 -2.4707e-010 -3.77262e-010 2.34455e-009 -4.46252e-010 -6.62778e-010 1.35454e-009 -2.4706e-010 -3.77254e-010 -7.73091 5.47488 -0.417314 1.35454e-009 -2.47064e-010 -3.7726e-010 -2.90554 0.965183 -0.102902 1.35453e-009 -2.47065e-010 -3.77268e-010 -10.2786 0.731801 -0.0259123 1.35454e-009 -2.47068e-010 -3.77277e-010 -2.22167 -0.733487 0.20892 -2.03217e-016 0 -3.88251e-019 -13.5356 -43.7138 13.038 -3.48327 82.3535 6.27866 -168.587 28.6982 160.884 2.03217e-016 0 3.88251e-019 -2.83667 -32.9461 0.768452 0.34671 40.6968 -0.804487 0.873473 -6.3056 2.3552 
49.4887 80.421 -10.7187 0.351394 -1.63486 -173.466 -9.34443 18.3328 -3.13007 6.58937 3.8282 -0.842207 -6.0534 12.1653 -2.79174 16.6188 -0.181841 -1.60839 -0 0 0 -0 0 0 6.10466e-014 1.006e-013 -2.38967e-013 65.6643 -2.66827 -15.9673 -12.3101 -5.65945 22.2294 -0.423489 18.145 2.64043 7.18471e-010 -5.97473e-010 -2.81645e-009 1.20265e-009 -1.06664e-009 -4.87898e-009 7.18472e-010 -5.97475e-010 -2.81645e-009 7.73091 5.47488 0.417314 7.18466e-010 -5.97476e-010 -2.81645e-009 2.90554 0.965183 0.102902 7.18472e-010 -5.97477e-010 -2.81645e-009 10.2786 0.731801 0.0259123 7.18458e-010 -5.97476e-010 -2.81644e-009 2.22167 -0.733487 -0.20892 6.09121e-014 1.00618e-013 -2.39032e-013 -53.255 25.5012 -8.08039 17.6707 -10.3317 -33.2812 0.0328156 4.58938 -0.6477 1.22323e-009 -5.75496e-010 -5.32086e-010 2.11388e-009 -1.01731e-009 -9.3044e-010 1.22323e-009 -5.75484e-010 -5.32081e-010 -7.73091 5.47488 -0.417314 1.22324e-009 -5.75489e-010 -5.32083e-010 -2.90554 0.965183 -0.102902 1.22322e-009 -5.75491e-010 -5.32092e-010 -10.2786 0.731801 -0.0259123 1.22324e-009 -5.75495e-010 -5.32098e-010 -2.22167 -0.733487 0.20892 -2.03217e-016 0 -3.88251e-019 -14.2925 -51.955 10.7682 -36.0751 88.5928 39.1225 -114.341 64.3021 115.245 2.03217e-016 0 3.88251e-019 -4.41097 -28.9547 2.10601 0.328211 39.2282 -0.70891 0.611489 -5.88223 1.26087 
49.3317 80.6982 -12.2 1.25251 0.134884 -173.907 -10.2296 21.2609 -5.53116 6.6166 3.95292 -1.46528 -6.08905 12.3564 -1.73439 15.6311 -0.841951 0.132562 -0 0 0 -0 0 0 2.15315e-014 8.90458e-014 -1.62159e-013 66.6367 -3.42397 -19.3721 -12.3343 -5.68583 22.2587 -0.470088 19.1135 2.79161 8.14109e-010 -1.92099e-010 -1.71533e-009 1.38352e-009 -3.59339e-010 -2.97736e-009 8.1411e-010 -1.92102e-010 -1.71533e-009 7.73091 5.47488 0.417314 8.14103e-010 -1.92102e-010 -1.71533e-009 2.90554 0.965183 0.102902 8.1411e-010 -1.92104e-010 -1.71533e-009 10.2786 0.731801 0.0259123 8.14096e-010 -1.92102e-010 -1.71533e-009 2.22167 -0.733487 -0.20892 2.14073e-014 8.90641e-014 -1.62208e-013 -51.8516 23.7349 -13.2126 18.289 -11.0008 -34.6718 0.0271579 4.69901 -0.661903 7.59389e-010 -9.01652e-010 -5.78632e-010 1.30951e-009 -1.57452e-009 -1.00787e-009 7.59388e-010 -9.01641e-010 -5.78629e-010 -7.73091 5.47488 -0.417314 7.5939e-010 -9.01645e-010 -5.78629e-010 -2.90554 0.965183 -0.102902 7.59379e-010 -9.01648e-010 -5.78637e-010 -10.2786 0.731801 -0.0259123 7.59392e-010 -9.01653e-010 -5.78641e-010 -2.22167 -0.733487 0.20892 -2.03217e-016 0 -3.88251e-019 -14.1983 -58.7049 8.962 -34.7737 88.687 37.7984 -40.2973 56.724 49.1756 2.03217e-016 0 3.88251e-019 -5.50126 -25.7198 3.06051 0.317945 37.9704 -0.603281 0.422632 -5.69504 0.426336 
49.3674 80.7352 -13.3973 1.31431 0.942542 -174.094 -10.0801 23.1687 -7.58424 6.57414 4.12906 -1.927 -5.94581 12.4398 -0.809513 14.6959 -1.47545 1.81108 -0 0 0 -0 0 0 -3.46892e-014 4.43475e-014 -7.07083e-014 67.1059 -4.63633 -22.7191 -12.2172 -5.60073 22.033 -0.523278 20.0052 2.93569 1.08965e-009 1.25963e-009 -1.71347e-010 1.88513e-009 2.18559e-009 -3.15396e-010 1.08966e-009 1.25963e-009 -1.7135e-010 7.73091 5.47488 0.417314 1.08965e-009 1.25963e-009 -1.71346e-010 2.90554 0.965183 0.102902 1.08965e-009 1.25962e-009 -1.71346e-010 10.2786 0.731801 0.0259123 1.08964e-009 1.25963e-009 -1.7134e-010 2.22167 -0.733487 -0.20892 -3.48412e-014 4.43589e-014 -7.07902e-014 -50.6647 21.465 -18.6291 18.8138 -11.5757 -35.9033 0.028431 4.80812 -0.677344 -4.04735e-010 -1.35078e-009 -4.695e-010 -7.04072e-010 -2.32477e-009 -8.10121e-010 -4.04737e-010 -1.35077e-009 -4.69496e-010 -7.73091 5.47488 -0.417314 -4.04735e-010 -1.35078e-009 -4.69496e-010 -2.90554 0.965183 -0.102902 -4.04744e-010 -1.35078e-009 -4.69503e-010 -10.2786 0.731801 -0.0259123 -4.04732e-010 -1.35078e-009 -4.69507e-010 -2.22167 -0.733487 0.20892 -2.03217e-016 0 -3.88251e-019 -11.6047 -63.3425 8.44102 -0.0358848 78.8287 2.56133 -17.8657 47.9622 27.0653 2.03217e-016 0 3.88251e-019 -5.61762 -23.5853 3.69991 0.316799 36.9335 -0.463083 0.311685 -5.80181 -0.0577892 
49.2657 81.1991 -14.4627 0.776448 1.13765 -174.014 -9.37653 24.4717 -9.35252 6.46432 4.34264 -2.27399 -5.67679 12.4443 0.11657 13.7592 -2.14072 3.48922 -0 0 0 -0 0 0 -1.08252e-013 -2.32584e-014 3.27187e-014 67.2423 -5.96167 -25.9441 -12.0655 -5.48965 21.7441 -0.577476 20.8069 3.06868 1.52952e-009 3.36322e-009 1.81187e-009 2.67916e-009 5.87732e-009 3.10201e-009 1.52953e-009 3.36322e-009 1.81186e-009 7.73091 5.47488 0.417314 1.52952e-009 3.36322e-009 1.81186e-009 2.90554 0.965183 0.102902 1.52953e-009 3.36322e-009 1.81187e-009 10.2786 0.731801 0.0259123 1.52951e-009 3.36322e-009 1.81187e-009 2.22167 -0.733487 -0.20892 -1.08455e-013 -2.32587e-014 3.25727e-014 -49.8733 18.5488 -24.1854 19.2489 -12.0839 -36.9132 0.03232 5.13451 -0.723557 -2.06897e-009 -1.89196e-009 -3.04605e-010 -3.58245e-009 -3.22012e-009 -5.11793e-010 -2.06898e-009 -1.89197e-009 -3.04599e-010 -7.73091 5.47488 -0.417314 -2.06898e-009 -1.89196e-009 -3.04601e-010 -2.90554 0.965183 -0.102902 -2.06898e-009 -1.89197e-009 -3.04605e-010 -10.2786 0.731801 -0.0259123 -2.06897e-009 -1.89197e-009 -3.0461e-010 -2.22167 -0.733487 0.20892 -2.03217e-016 0 -3.88251e-019 -6.94204 -66.5494 8.90607 1.24869 62.0319 0.0727598 -5.18043 46.341 9.23081 2.03217e-016 0 3.88251e-019 -4.93771 -22.1152 4.27296 0.326093 36.0171 -0.292888 0.250173 -6.09198 -0.266647 
